<mxfile host="Electron" agent="Mozilla/5.0 (X11; Linux x86_64) AppleWebKit/537.36 (KHTML, like Gecko) draw.io/26.0.16 Chrome/132.0.6834.196 Electron/34.2.0 Safari/537.36" version="26.0.16">
  <diagram name="Page-1" id="b5b7bab2-c9e2-2cf4-8b2a-24fd1a2a6d21">
    <mxGraphModel dx="1461" dy="843" grid="1" gridSize="10" guides="1" tooltips="1" connect="1" arrows="1" fold="1" page="1" pageScale="1" pageWidth="827" pageHeight="1169" background="none" math="0" shadow="0">
      <root>
        <mxCell id="0" />
        <mxCell id="1" parent="0" />
        <mxCell id="Pql-3GGU46BMwOjksggB-78" value="" style="rounded=1;whiteSpace=wrap;html=1;fillColor=none;dashed=1;" parent="1" vertex="1">
          <mxGeometry x="-760" y="240" width="680" height="680" as="geometry" />
        </mxCell>
        <mxCell id="Pql-3GGU46BMwOjksggB-81" value="" style="rounded=1;whiteSpace=wrap;html=1;fillColor=none;dashed=1;" parent="1" vertex="1">
          <mxGeometry x="80" y="240" width="700" height="680" as="geometry" />
        </mxCell>
        <mxCell id="Pql-3GGU46BMwOjksggB-5" value="Integration Model" style="rounded=0;whiteSpace=wrap;html=1;fontSize=25;align=left;fillColor=default;strokeColor=none;fontStyle=1" parent="1" vertex="1">
          <mxGeometry x="-800" y="40" width="310" height="40" as="geometry" />
        </mxCell>
        <mxCell id="Pql-3GGU46BMwOjksggB-35" value="crm_prd_info" style="swimlane;fontStyle=0;childLayout=stackLayout;horizontal=1;startSize=30;horizontalStack=0;resizeParent=1;resizeParentMax=0;resizeLast=0;collapsible=1;marginBottom=0;whiteSpace=wrap;html=1;rounded=1;fillColor=#dae8fc;strokeColor=#6c8ebf;fontSize=20;" parent="1" vertex="1">
          <mxGeometry x="-350" y="400" width="200" height="90" as="geometry" />
        </mxCell>
        <mxCell id="Pql-3GGU46BMwOjksggB-36" value="prd_key" style="text;align=left;verticalAlign=middle;spacingLeft=4;spacingRight=4;overflow=hidden;points=[[0,0.5],[1,0.5]];portConstraint=eastwest;rotatable=0;whiteSpace=wrap;html=1;fontSize=20;" parent="Pql-3GGU46BMwOjksggB-35" vertex="1">
          <mxGeometry y="30" width="200" height="60" as="geometry" />
        </mxCell>
        <mxCell id="Pql-3GGU46BMwOjksggB-39" value="Product History" style="rounded=0;whiteSpace=wrap;html=1;strokeColor=none;" parent="1" vertex="1">
          <mxGeometry x="-320" y="360" width="160" height="30" as="geometry" />
        </mxCell>
        <mxCell id="Pql-3GGU46BMwOjksggB-41" value="crm_cust_info" style="swimlane;fontStyle=0;childLayout=stackLayout;horizontal=1;startSize=30;horizontalStack=0;resizeParent=1;resizeParentMax=0;resizeLast=0;collapsible=1;marginBottom=0;whiteSpace=wrap;html=1;rounded=1;fillColor=#dae8fc;strokeColor=#6c8ebf;fontSize=20;" parent="1" vertex="1">
          <mxGeometry x="-350" y="630" width="200" height="90" as="geometry" />
        </mxCell>
        <mxCell id="Pql-3GGU46BMwOjksggB-42" value="cst_id" style="text;align=left;verticalAlign=middle;spacingLeft=4;spacingRight=4;overflow=hidden;points=[[0,0.5],[1,0.5]];portConstraint=eastwest;rotatable=0;whiteSpace=wrap;html=1;fontSize=20;" parent="Pql-3GGU46BMwOjksggB-41" vertex="1">
          <mxGeometry y="30" width="200" height="60" as="geometry" />
        </mxCell>
        <mxCell id="Pql-3GGU46BMwOjksggB-43" value="Customer Information" style="rounded=0;whiteSpace=wrap;html=1;strokeColor=none;" parent="1" vertex="1">
          <mxGeometry x="-340" y="590" width="160" height="30" as="geometry" />
        </mxCell>
        <mxCell id="Pql-3GGU46BMwOjksggB-44" value="crm_sales_details" style="swimlane;fontStyle=0;childLayout=stackLayout;horizontal=1;startSize=30;horizontalStack=0;resizeParent=1;resizeParentMax=0;resizeLast=0;collapsible=1;marginBottom=0;whiteSpace=wrap;html=1;rounded=1;fillColor=#dae8fc;strokeColor=#6c8ebf;fontSize=20;" parent="1" vertex="1">
          <mxGeometry x="-690" y="450" width="200" height="150" as="geometry" />
        </mxCell>
        <mxCell id="Pql-3GGU46BMwOjksggB-45" value="prd_key" style="text;align=left;verticalAlign=middle;spacingLeft=4;spacingRight=4;overflow=hidden;points=[[0,0.5],[1,0.5]];portConstraint=eastwest;rotatable=0;whiteSpace=wrap;html=1;fontSize=20;" parent="Pql-3GGU46BMwOjksggB-44" vertex="1">
          <mxGeometry y="30" width="200" height="60" as="geometry" />
        </mxCell>
        <mxCell id="Pql-3GGU46BMwOjksggB-48" value="cst_key" style="text;align=left;verticalAlign=middle;spacingLeft=4;spacingRight=4;overflow=hidden;points=[[0,0.5],[1,0.5]];portConstraint=eastwest;rotatable=0;whiteSpace=wrap;html=1;fontSize=20;" parent="Pql-3GGU46BMwOjksggB-44" vertex="1">
          <mxGeometry y="90" width="200" height="60" as="geometry" />
        </mxCell>
        <mxCell id="Pql-3GGU46BMwOjksggB-46" value="Sales Records" style="rounded=0;whiteSpace=wrap;html=1;strokeColor=none;" parent="1" vertex="1">
          <mxGeometry x="-670" y="410" width="160" height="30" as="geometry" />
        </mxCell>
        <mxCell id="Pql-3GGU46BMwOjksggB-59" value="" style="edgeStyle=entityRelationEdgeStyle;fontSize=12;html=1;endArrow=ERoneToMany;rounded=0;" parent="1" source="Pql-3GGU46BMwOjksggB-42" target="Pql-3GGU46BMwOjksggB-48" edge="1">
          <mxGeometry width="100" height="100" relative="1" as="geometry">
            <mxPoint x="-470" y="680" as="sourcePoint" />
            <mxPoint x="-370" y="580" as="targetPoint" />
            <Array as="points">
              <mxPoint x="-380" y="700" />
              <mxPoint x="-390" y="600" />
              <mxPoint x="-390" y="570" />
            </Array>
          </mxGeometry>
        </mxCell>
        <mxCell id="Pql-3GGU46BMwOjksggB-61" value="" style="edgeStyle=entityRelationEdgeStyle;fontSize=12;html=1;endArrow=ERoneToMany;rounded=0;" parent="1" source="Pql-3GGU46BMwOjksggB-36" target="Pql-3GGU46BMwOjksggB-45" edge="1">
          <mxGeometry width="100" height="100" relative="1" as="geometry">
            <mxPoint x="-400" y="570" as="sourcePoint" />
            <mxPoint x="-300" y="470" as="targetPoint" />
          </mxGeometry>
        </mxCell>
        <mxCell id="Pql-3GGU46BMwOjksggB-62" value="erp_cust_az12" style="swimlane;fontStyle=0;childLayout=stackLayout;horizontal=1;startSize=30;horizontalStack=0;resizeParent=1;resizeParentMax=0;resizeLast=0;collapsible=1;marginBottom=0;whiteSpace=wrap;html=1;rounded=1;fillColor=#fff2cc;strokeColor=#d6b656;fontSize=20;" parent="1" vertex="1">
          <mxGeometry x="240" y="570" width="360" height="100" as="geometry" />
        </mxCell>
        <mxCell id="Pql-3GGU46BMwOjksggB-63" value="cid" style="text;align=left;verticalAlign=middle;spacingLeft=4;spacingRight=4;overflow=hidden;points=[[0,0.5],[1,0.5]];portConstraint=eastwest;rotatable=0;whiteSpace=wrap;html=1;fontSize=25;" parent="Pql-3GGU46BMwOjksggB-62" vertex="1">
          <mxGeometry y="30" width="360" height="70" as="geometry" />
        </mxCell>
        <mxCell id="Pql-3GGU46BMwOjksggB-64" value="Extra customer info (birth day)" style="rounded=0;whiteSpace=wrap;html=1;strokeColor=none;fontSize=15;" parent="1" vertex="1">
          <mxGeometry x="250" y="530" width="330" height="30" as="geometry" />
        </mxCell>
        <mxCell id="Pql-3GGU46BMwOjksggB-65" value="" style="edgeStyle=entityRelationEdgeStyle;fontSize=12;html=1;endArrow=ERmandOne;startArrow=ERmandOne;rounded=0;entryX=0;entryY=0.333;entryDx=0;entryDy=0;entryPerimeter=0;flowAnimation=0;" parent="1" source="Pql-3GGU46BMwOjksggB-42" target="Pql-3GGU46BMwOjksggB-63" edge="1">
          <mxGeometry width="100" height="100" relative="1" as="geometry">
            <mxPoint x="-140" y="750" as="sourcePoint" />
            <mxPoint x="-40" y="650" as="targetPoint" />
            <Array as="points">
              <mxPoint x="-20" y="690" />
              <mxPoint x="190" y="760" />
              <mxPoint x="-30" y="700" />
              <mxPoint x="-50" y="750" />
              <mxPoint x="-80" y="740" />
            </Array>
          </mxGeometry>
        </mxCell>
        <mxCell id="Pql-3GGU46BMwOjksggB-68" value="erp_loc_a101" style="swimlane;fontStyle=0;childLayout=stackLayout;horizontal=1;startSize=30;horizontalStack=0;resizeParent=1;resizeParentMax=0;resizeLast=0;collapsible=1;marginBottom=0;whiteSpace=wrap;html=1;rounded=1;fillColor=#fff2cc;strokeColor=#d6b656;fontSize=20;" parent="1" vertex="1">
          <mxGeometry x="240" y="780" width="360" height="70" as="geometry" />
        </mxCell>
        <mxCell id="Pql-3GGU46BMwOjksggB-69" value="cid" style="text;align=left;verticalAlign=middle;spacingLeft=4;spacingRight=4;overflow=hidden;points=[[0,0.5],[1,0.5]];portConstraint=eastwest;rotatable=0;whiteSpace=wrap;html=1;fontSize=25;" parent="Pql-3GGU46BMwOjksggB-68" vertex="1">
          <mxGeometry y="30" width="360" height="40" as="geometry" />
        </mxCell>
        <mxCell id="Pql-3GGU46BMwOjksggB-70" value="Customer location (country)" style="rounded=0;whiteSpace=wrap;html=1;strokeColor=none;fontSize=15;" parent="1" vertex="1">
          <mxGeometry x="250" y="740" width="340" height="30" as="geometry" />
        </mxCell>
        <mxCell id="Pql-3GGU46BMwOjksggB-71" value="" style="edgeStyle=entityRelationEdgeStyle;fontSize=12;html=1;endArrow=ERmandOne;startArrow=ERmandOne;rounded=0;flowAnimation=0;exitX=1;exitY=0.5;exitDx=0;exitDy=0;" parent="1" source="Pql-3GGU46BMwOjksggB-42" target="Pql-3GGU46BMwOjksggB-69" edge="1">
          <mxGeometry width="100" height="100" relative="1" as="geometry">
            <mxPoint x="-200" y="870" as="sourcePoint" />
            <mxPoint x="-60" y="860" as="targetPoint" />
            <Array as="points">
              <mxPoint x="-70" y="870" />
              <mxPoint x="-150" y="960" />
              <mxPoint x="140" y="940" />
              <mxPoint x="-80" y="880" />
              <mxPoint x="-100" y="930" />
              <mxPoint x="-130" y="920" />
            </Array>
          </mxGeometry>
        </mxCell>
        <mxCell id="Pql-3GGU46BMwOjksggB-72" value="erp_px_cat_g1v2" style="swimlane;fontStyle=0;childLayout=stackLayout;horizontal=1;startSize=30;horizontalStack=0;resizeParent=1;resizeParentMax=0;resizeLast=0;collapsible=1;marginBottom=0;whiteSpace=wrap;html=1;rounded=1;fillColor=#fff2cc;strokeColor=#d6b656;fontSize=20;" parent="1" vertex="1">
          <mxGeometry x="240" y="390" width="350" height="100" as="geometry" />
        </mxCell>
        <mxCell id="Pql-3GGU46BMwOjksggB-73" value="cid" style="text;align=left;verticalAlign=middle;spacingLeft=4;spacingRight=4;overflow=hidden;points=[[0,0.5],[1,0.5]];portConstraint=eastwest;rotatable=0;whiteSpace=wrap;html=1;fontSize=25;" parent="Pql-3GGU46BMwOjksggB-72" vertex="1">
          <mxGeometry y="30" width="350" height="70" as="geometry" />
        </mxCell>
        <mxCell id="Pql-3GGU46BMwOjksggB-74" value="Extra product info(category,sub-category &amp;amp; maintenance status)" style="rounded=0;whiteSpace=wrap;html=1;strokeColor=none;fontSize=15;" parent="1" vertex="1">
          <mxGeometry x="249" y="330" width="330" height="50" as="geometry" />
        </mxCell>
        <mxCell id="Pql-3GGU46BMwOjksggB-75" style="edgeStyle=orthogonalEdgeStyle;rounded=0;orthogonalLoop=1;jettySize=auto;html=1;" parent="1" source="Pql-3GGU46BMwOjksggB-73" target="Pql-3GGU46BMwOjksggB-36" edge="1">
          <mxGeometry relative="1" as="geometry" />
        </mxCell>
        <mxCell id="Pql-3GGU46BMwOjksggB-80" value="&lt;font style=&quot;font-size: 18px;&quot;&gt;&lt;b&gt;CRM&lt;/b&gt;&lt;/font&gt;" style="rounded=1;whiteSpace=wrap;html=1;fontSize=13;fillColor=#dae8fc;strokeColor=#6c8ebf;" parent="1" vertex="1">
          <mxGeometry x="-473" y="210" width="120" height="60" as="geometry" />
        </mxCell>
        <mxCell id="Pql-3GGU46BMwOjksggB-82" value="&lt;font style=&quot;font-size: 18px;&quot;&gt;&lt;b&gt;ERP&lt;/b&gt;&lt;/font&gt;" style="rounded=1;whiteSpace=wrap;html=1;fontSize=13;fillColor=#fff2cc;strokeColor=#d6b656;" parent="1" vertex="1">
          <mxGeometry x="320" y="210" width="120" height="60" as="geometry" />
        </mxCell>
      </root>
    </mxGraphModel>
  </diagram>
</mxfile>
